<svg xmlns="http://www.w3.org/2000/svg" id="Layer_2" viewBox="0 0 1980 1000">
	<g id="Layer_1-2">
		<g>
			<circle cx="276.69" cy="169.41" r="169.41" />
			<path
				d="M553.38,376.47c-3.01-31.45-14.73-60.28-32.71-84.11l-243.98,94.88L32.71,292.36C14.73,316.19,3.01,345.03,0,376.47l152.19,59.18-103.61,40.29c13.92,27.52,30.65,53.39,49.88,77.44l178.23-69.31,178.23,69.31c19.23-24.04,35.96-49.92,49.88-77.44l-103.61-40.29,152.19-59.18Z" />
		</g>
		<path
			d="M990.2,130.13c0-23.93,19.14-43.08,43.08-43.08s43.08,19.14,43.08,43.08-19.14,43.08-43.08,43.08-43.08-19.14-43.08-43.08Zm4.79,78.49c28.24-6.22,56-6.7,77.54,.48,1.91,1.91-1.92,231.18-3.83,234.53-17.23,2.39-50.26,3.35-71.32,.48-.96-1.44-5.26-230.22-2.39-235.48Z" />
		<path
			d="M1107.89,210.18c27.28-6.22,54.56-6.7,75.14,.48,.48,9.09,0,27.76-.48,30.15,18.19-31.11,51.69-40.2,85.2-32.55-.48,24.89-5.26,55.52-11.01,79.93-8.14-2.39-20.58-4.79-32.07-4.79-24.41,0-34.94,15.79-37.81,36.85-1.43,10.53,2.39,121.57,.96,123.01-19.14,2.87-56.48,3.83-80.41,.48-1.44-1.92-1.44-224,.48-233.57Z" />
		<path
			d="M1279.63,324.78c0-73.71,56-121.09,111.04-121.09,42.6,0,63.66,22.97,70.36,32.07,0-2.87,0-22.97,.96-25.37,25.85-5.74,51.69-6.22,71.79,.48,1.44,.48-1.92,226.39-3.35,231.66-17.23,2.39-50.26,3.35-71.32,.48-.48-3.35-.48-23.45-.96-26.8-8.14,13.4-35.42,29.67-67.49,29.67-55.04,0-111.04-47.38-111.04-121.09Zm176.61,0c0-28.24-21.06-50.73-48.82-50.73s-48.82,22.5-48.82,50.73,21.06,50.73,48.82,50.73,48.82-22.5,48.82-50.73Z" />
		<path
			d="M1592.4,369.29c.48-22.5,3.35-104.82,3.35-105.3s-30.63,0-33.02-2.39c-1.92-14.36-2.87-41.64-.48-58.87h35.9c.48-2.39,.48-48.82,2.39-54.56,16.75-5.26,57.91-10.53,73.23-8.62,1.44,2.87-1.44,64.14-.96,64.62,10.53-.48,54.09,0,58.39,1.91,1.92,14.36,2.87,41.64,.48,58.87-3.35,3.35-56.48,.96-60.79,1.44,0,2.39-1.44,55.52-1.44,83.28,0,15.32,7.66,24.89,22.98,25.37,14.84,.48,27.76-8.62,31.59-9.57,7.18,13.4,17.23,39.73,21.06,56.96,0,0-20.1,23.93-70.84,23.45-55.04,0-81.85-30.15-81.85-76.58Z" />
		<path
			d="M1832.1,346.8c2.39,21.54,19.62,33.98,52.65,33.98,23.45,0,44.99-7.18,57.44-14.36,7.18,13.4,17.23,39.73,21.06,56.96-12.92,10.53-43.55,22.5-82.32,22.5-89.98,0-126.84-57.91-126.84-122.05s42.6-122.05,120.13-122.05c67.97,0,105.78,50.26,105.78,103.86,0,14.84-.96,29.2-3.35,38.77-24.41,3.35-112.96,3.35-144.54,2.39Zm.96-49.78l74.19-.96c0-23.45-10.05-37.33-33.98-37.33s-37.33,15.79-40.21,38.29Z" />
		<path
			d="M1072.13,537.3c1.44,11.97-.48,135.53-2.39,147.5,10.54-14.37,29.69-28.73,63.21-28.73,65.13,0,97.22,41.18,97.22,102.96,0,32.09-3.83,126.91-6.7,136.01-17.72,2.39-52.2,3.35-74.23,.48-.96-5.27,.48-111.1,.48-128.34,0-20.11-11.01-43.58-35.92-43.58-26.34,0-40.23,20.59-40.23,39.27,0,15.8-.48,130.74-2.4,132.65-17.72,2.39-52.2,3.35-74.23,.48-1.44-2.87-2.87-333.31-.48-359.17,27.78-6.23,54.59-6.7,75.67,.48Z" />
		<path
			d="M1384.53,656.42c26.34-5.75,52.2-6.23,72.31,.48l-.48,25.86c3.35-5.75,26.34-27.3,65.61-27.3,58.9,0,110.62,47.41,110.62,121.16s-51.24,120.68-110.62,121.16c-31.61,.48-57.95-15.32-61.3-21.55,0,15.8,0,116.85-2.39,121.16-19.16,2.87-56.03,3.83-79.5,.48-1.44-.48,1.44-330.91,5.75-341.45Zm169.05,120.2c0-28.26-22.03-50.76-49.81-50.76s-49.8,22.51-49.8,50.76,22.03,50.76,49.8,50.76,49.81-22.51,49.81-50.76Z" />
		<path
			d="M1262.71,582.01c0-23.93,19.14-43.08,43.08-43.08s43.08,19.14,43.08,43.08-19.14,43.08-43.08,43.08-43.08-19.14-43.08-43.08Zm4.79,78.49c28.24-6.22,56-6.7,77.54,.48,1.91,1.91-1.92,231.18-3.83,234.53-17.23,2.39-50.26,3.35-71.32,.48-.96-1.44-5.26-230.22-2.39-235.48Z" />
		<path
			d="M823.07,897.76c98.97,0,139.61-53.07,139.61-103.75,0-65.98-47.81-91.32-114.75-105.66-50.2-10.52-57.85-17.21-57.85-32.03,0-15.78,14.34-27.25,46.38-27.25,45.9,0,80.8,18.17,88.45,21.04,8.61-14.82,20.56-46.86,25.82-68.37-18.17-12.43-60.24-26.3-115.7-26.3-84.63,0-130.52,47.33-130.52,101.84,0,62.63,34.9,94.19,100.88,107.1,52.11,10.04,65.5,21.99,65.5,36.81,0,20.56-17.69,26.3-49.72,26.3-40.64,0-81.28-25.82-92.75-32.51-8.61,14.82-21.04,47.33-26.3,68.85,17.21,12.91,64.07,33.95,120.96,33.95" />
		<path
			d="M835.4,107.2c-44.94,0-98.97,2.39-124.79,4.78-4.3,33.47-3.35,309.82-.96,331.81,26.3,3.35,67.41,1.91,88.93-.96,2.87-7.65,2.39-53.07,2.39-96.1,17.69,.48,17.21,.48,34.42,.48,74.59,0,127.66-46.38,127.66-120.01s-53.07-120.01-127.66-120.01Zm-5.26,165.91c-10.52,0-22.47-.48-31.08-1.43v-84.15c11.47-1.43,17.69-1.91,32.51-1.91,23.91,0,43.51,16.26,43.51,43.51s-19.6,43.99-44.94,43.99Z" />
		<path
			d="M1647.24,705.9c0-27.93,22.26-50.19,50.19-50.19s50.19,22.26,50.19,50.19-22.26,50.19-50.19,50.19-50.19-22.26-50.19-50.19Zm88.41,0c0-21.42-16.8-38.22-38.22-38.22s-38.22,16.8-38.22,38.22,16.8,38.22,38.22,38.22,38.22-16.8,38.22-38.22Zm-56.07,22.89c-.21-3.15,0-42.63,.63-47.46,3.57-.21,11.13-.63,16.59-.63,13.44,0,21.21,5.46,21.21,16.59,0,6.72-3.15,11.13-8.4,13.44,5.04,6.09,10.08,14.07,9.87,14.28-.63,1.05-9.45,4.83-11.55,4.83-.21,0-5.88-9.45-11.76-16.8h-3.15c-.21,4.83,0,13.44-.42,15.54-.63,.21-12.81,.63-13.02,.21Zm18.27-26.04c3.78,0,6.51-1.68,6.51-5.04s-1.68-5.46-7.14-5.46c-1.26,0-2.31,0-3.57,.21v10.08c1.05,0,2.73,.21,4.2,.21Z" />
	</g>
</svg>